<?xml version="1.0" encoding="utf-8"?>
<!-- Generator: Adobe Illustrator 16.0.0, SVG Export Plug-In . SVG Version: 6.00 Build 0)  -->
<!DOCTYPE svg PUBLIC "-//W3C//DTD SVG 1.1//EN" "http://www.w3.org/Graphics/SVG/1.1/DTD/svg11.dtd">
<svg version="1.1" id="Layer_1" xmlns="http://www.w3.org/2000/svg" xmlns:xlink="http://www.w3.org/1999/xlink" x="0px" y="0px"
	 width="612px" height="691.5px" viewBox="0 100.5 612 691.5" enable-background="new 0 100.5 612 691.5" xml:space="preserve">
<rect y="107.003" fill="#FFFFFF" width="612" height="221.497"/>
<linearGradient id="SVGID_1_" gradientUnits="userSpaceOnUse" x1="-54.4941" y1="-270.9668" x2="1577.7637" y2="-270.9668" gradientTransform="matrix(0.3187 0 0 0.3187 17.3612 267.4325)">
	<stop  offset="0" style="stop-color:#BC397F"/>
	<stop  offset="1" style="stop-color:#5A70B2"/>
</linearGradient>
<path opacity="0.08" fill="url(#SVGID_1_)" enable-background="new    " d="M500.157,117.224c-6.534-1.24-13.196-1.986-19.836-2.445
	c-5.591-0.389-11.252-0.357-16.843,0.026c-10.935,0.749-21.646,2.929-32.02,6.471c-11.29,3.856-22.459,8.064-33.711,12.042
	c-7.462,2.639-15.093,4.673-22.981,5.55c-12.228,1.361-24.102-0.319-35.299-5.317c-7.296-3.258-14.248-7.296-21.278-11.118
	c-10.38-5.639-21.028-10.579-32.545-13.441c-15.51-3.86-30.412-2.037-44.711,4.938c-8.157,3.978-16.183,8.227-24.378,12.122
	c-7.542,3.586-15.405,6.298-23.722,7.509c-7.309,1.065-14.487,0.236-21.241-2.527c-7.149-2.926-14.108-6.366-21.012-9.85
	c-8.007-4.042-15.966-8.128-24.62-10.671c-12.192-3.583-24.445-3.641-36.765-0.8c-12.637,2.912-24.323,8.181-35.355,14.849
	c-10.356,6.263-21.241,11.054-33.121,13.518c-6.869,1.425-13.776,2.18-20.725,2.381v114.686c173.4,0,346.8,0,520.2,0
	c0-44.307,0-88.612,0-132.919C513.525,120.53,506.911,118.506,500.157,117.224z"/>
<linearGradient id="SVGID_2_" gradientUnits="userSpaceOnUse" x1="-54.4746" y1="-270.9668" x2="1749.1289" y2="-270.9668" gradientTransform="matrix(0.3187 0 0 0.3187 17.3612 267.4325)">
	<stop  offset="0" style="stop-color:#BC397F"/>
	<stop  offset="1" style="stop-color:#5A70B2"/>
</linearGradient>
<path opacity="0.3" fill="url(#SVGID_2_)" enable-background="new    " d="M554.766,117.224c-6.534-1.24-13.195-1.986-19.836-2.445
	c-5.591-0.389-11.252-0.357-16.843,0.026c-10.934,0.749-21.646,2.929-32.019,6.471c-11.29,3.856-22.459,8.064-33.711,12.042
	c-7.463,2.639-15.094,4.673-22.982,5.55c-12.227,1.361-24.101-0.319-35.298-5.317c-7.296-3.258-14.248-7.296-21.28-11.118
	c-10.378-5.639-21.027-10.579-32.544-13.442c-15.511-3.86-30.412-2.037-44.711,4.938c-8.157,3.978-16.183,8.227-24.378,12.122
	c-7.542,3.586-15.405,6.298-23.722,7.509c-7.309,1.065-14.487,0.236-21.241-2.527c-7.15-2.926-14.108-6.366-21.012-9.85
	c-8.007-4.042-15.966-8.128-24.62-10.671c-12.192-3.583-24.445-3.641-36.765-0.8c-12.639,2.914-24.324,8.182-35.356,14.851
	c-10.356,6.262-21.241,11.053-33.121,13.517c-10.93,2.267-21.962,2.847-33.089,2.177c-14.52-0.876-28.545-3.611-42.238-7.592
	v122.483c191.604,0,383.204,0,574.809,0c0-44.307,0-88.612,0-132.919C568.131,120.53,561.52,118.506,554.766,117.224z"/>
<linearGradient id="SVGID_3_" gradientUnits="userSpaceOnUse" x1="-54.4746" y1="-270.9736" x2="1865.8262" y2="-270.9736" gradientTransform="matrix(0.3187 0 0 0.3187 17.3612 267.4325)">
	<stop  offset="0" style="stop-color:#BC397F"/>
	<stop  offset="1" style="stop-color:#5A70B2"/>
</linearGradient>
<path fill="url(#SVGID_3_)" d="M612,122.229c0,44.307,0,88.612,0,132.919c-204,0-408,0-612,0c0-45.368,0-90.739,0-136.106
	c0.497,0.182,1.004,0.335,1.489,0.545c24.955,10.758,50.569,19.023,77.944,20.667c11.127,0.669,22.159,0.089,33.089-2.177
	c11.876-2.464,22.762-7.255,33.121-13.519c11.032-6.671,22.717-11.937,35.356-14.851c12.32-2.84,24.569-2.783,36.765,0.8
	c8.654,2.543,16.613,6.63,24.62,10.672c6.904,3.484,13.859,6.923,21.012,9.849c6.754,2.764,13.933,3.592,21.241,2.528
	c8.316-1.211,16.18-3.924,23.721-7.51c8.194-3.895,16.222-8.144,24.378-12.122c14.3-6.974,29.197-8.797,44.712-4.938
	c11.516,2.866,22.165,7.806,32.544,13.442c7.035,3.822,13.985,7.86,21.279,11.118c11.197,4.998,23.07,6.678,35.299,5.317
	c7.886-0.876,15.52-2.914,22.98-5.549c11.249-3.978,22.421-8.186,33.712-12.042c10.368-3.542,21.085-5.722,32.019-6.471
	c5.595-0.382,11.256-0.414,16.843-0.025c6.64,0.459,13.302,1.205,19.836,2.445C598.711,118.506,605.325,120.53,612,122.229z"/>
<linearGradient id="SVGID_4_" gradientUnits="userSpaceOnUse" x1="-8.3398" y1="299.2964" x2="603.6602" y2="299.2964" gradientTransform="matrix(1 0 0 -1 8.3398 768.04)">
	<stop  offset="0" style="stop-color:#BC397F"/>
	<stop  offset="1" style="stop-color:#5A70B2"/>
</linearGradient>
<rect y="145.487" fill="url(#SVGID_4_)" width="612" height="646.513"/>
</svg>
