<?xml version="1.0" encoding="utf-8"?>
<!-- Generator: Adobe Illustrator 24.3.0, SVG Export Plug-In . SVG Version: 6.00 Build 0)  -->
<svg version="1.1" id="Layer_1" xmlns="http://www.w3.org/2000/svg" xmlns:xlink="http://www.w3.org/1999/xlink" x="0px" y="0px"
	 viewBox="0 0 1920 500" style="enable-background:new 0 0 1920 500;" xml:space="preserve">
<style type="text/css">
	.st0{opacity:0.08;fill:url(#SVGID_1_);}
	.st1{opacity:0.3;fill:url(#SVGID_2_);}
	.st2{fill:url(#SVGID_3_);}
</style>
<linearGradient id="SVGID_1_" gradientUnits="userSpaceOnUse" x1="0" y1="267.6158" x2="1632.0006" y2="267.6158">
	<stop  offset="0" style="stop-color:#BC397F"/>
	<stop  offset="1" style="stop-color:#5A70B2"/>
</linearGradient>
<path class="st0" d="M1569.12,67.3c-20.5-3.89-41.4-6.23-62.23-7.67c-17.54-1.22-35.3-1.12-52.84,0.08
	c-34.3,2.35-67.91,9.19-100.45,20.3c-35.42,12.1-70.46,25.3-105.76,37.78c-23.41,8.28-47.35,14.66-72.1,17.41
	c-38.36,4.27-75.61-1-110.74-16.68c-22.89-10.22-44.7-22.89-66.76-34.88c-32.56-17.69-65.97-33.19-102.1-42.17
	c-48.66-12.11-95.41-6.39-140.27,15.49c-25.59,12.48-50.77,25.81-76.48,38.03c-23.66,11.25-48.33,19.76-74.42,23.56
	c-22.93,3.34-45.45,0.74-66.64-7.93c-22.43-9.18-44.26-19.97-65.92-30.9c-25.12-12.68-50.09-25.5-77.24-33.48
	c-38.25-11.24-76.69-11.42-115.34-2.51c-39.65,9.14-76.31,25.67-110.92,46.59c-32.49,19.65-66.64,34.68-103.91,42.41
	c-21.55,4.47-43.22,6.84-65.02,7.47V500c544,0,1088,0,1632,0c0-139,0-278,0-417C1611.06,77.67,1590.31,71.32,1569.12,67.3z"/>
<linearGradient id="SVGID_2_" gradientUnits="userSpaceOnUse" x1="0" y1="267.6158" x2="1803.316" y2="267.6158">
	<stop  offset="0" style="stop-color:#BC397F"/>
	<stop  offset="1" style="stop-color:#5A70B2"/>
</linearGradient>
<path class="st1" d="M1740.44,67.3c-20.5-3.89-41.4-6.23-62.23-7.67c-17.54-1.22-35.3-1.12-52.84,0.08
	c-34.3,2.35-67.91,9.19-100.45,20.3c-35.42,12.1-70.46,25.3-105.76,37.78c-23.41,8.28-47.35,14.66-72.1,17.41
	c-38.36,4.27-75.61-1-110.74-16.68c-22.89-10.22-44.7-22.89-66.76-34.88c-32.56-17.69-65.97-33.19-102.1-42.17
	c-48.66-12.11-95.41-6.39-140.27,15.49c-25.59,12.48-50.77,25.81-76.48,38.03c-23.66,11.25-48.33,19.76-74.42,23.56
	c-22.93,3.34-45.45,0.74-66.64-7.93c-22.43-9.18-44.26-19.97-65.92-30.9c-25.12-12.68-50.09-25.5-77.24-33.48
	c-38.25-11.24-76.69-11.42-115.34-2.51c-39.65,9.14-76.31,25.67-110.92,46.59c-32.49,19.65-66.64,34.68-103.91,42.41
	c-34.29,7.11-68.9,8.93-103.81,6.83C86.96,136.81,42.96,128.23,0,115.74V500c601.11,0,1202.21,0,1803.32,0c0-139,0-278,0-417
	C1782.37,77.67,1761.63,71.32,1740.44,67.3z"/>
<linearGradient id="SVGID_3_" gradientUnits="userSpaceOnUse" x1="-1.192093e-07" y1="267.6158" x2="1920" y2="267.6158">
	<stop  offset="0" style="stop-color:#BC397F"/>
	<stop  offset="1" style="stop-color:#5A70B2"/>
</linearGradient>
<path class="st2" d="M1920,83c0,139,0,278,0,417c-640,0-1280,0-1920,0C0,357.67,0,215.33,0,73c1.56,0.57,3.15,1.05,4.67,1.71
	c78.29,33.75,158.65,59.68,244.53,64.84c34.91,2.1,69.52,0.28,103.81-6.83c37.26-7.73,71.41-22.76,103.91-42.41
	c34.61-20.93,71.27-37.45,110.92-46.59c38.65-8.91,77.08-8.73,115.34,2.51c27.15,7.98,52.12,20.8,77.24,33.48
	c21.66,10.93,43.48,21.72,65.92,30.9c21.19,8.67,43.71,11.27,66.64,7.93c26.09-3.8,50.76-12.31,74.42-23.56
	c25.71-12.22,50.89-25.55,76.48-38.03c44.86-21.88,91.6-27.6,140.27-15.49c36.13,8.99,69.54,24.49,102.1,42.17
	c22.07,11.99,43.88,24.66,66.76,34.88c35.13,15.68,72.38,20.95,110.74,16.68c24.74-2.75,48.69-9.14,72.1-17.41
	c35.29-12.48,70.34-25.68,105.76-37.78c32.53-11.11,66.15-17.95,100.45-20.3c17.55-1.2,35.31-1.3,52.84-0.08
	c20.83,1.44,41.73,3.78,62.23,7.67C1878.31,71.32,1899.06,77.67,1920,83z"/>
</svg>
