<?xml version="1.0" encoding="utf-8"?>
<!-- Generator: Adobe Illustrator 24.3.0, SVG Export Plug-In . SVG Version: 6.00 Build 0)  -->
<svg version="1.1" id="Layer_1" xmlns="http://www.w3.org/2000/svg" xmlns:xlink="http://www.w3.org/1999/xlink" x="0px" y="0px"
	 viewBox="0 0 1000 300" style="enable-background:new 0 0 1000 300;" xml:space="preserve" fill="#ffff">
<g>
	<path d="M416.87,203.42c-0.38,1.01-1.83,1.01-2.21,0L366.32,74.98h-23.07c0,0,54.06,133.33,57.36,141.14
		c3.3,7.8,15.16,7.15,15.16,7.15s11.87,0.65,15.16-7.15c3.3-7.8,57.36-141.14,57.36-141.14h-23.07L416.87,203.42z"/>
	<path d="M548.63,74.98h-16.19c-1.4,0-2.53,1.13-2.53,2.53v143.25c0,1.4,1.13,2.53,2.53,2.53h16.19c1.4,0,2.53-1.13,2.53-2.53V77.51
		C551.16,76.11,550.03,74.98,548.63,74.98z"/>
	<path d="M810.74,74.98h-16.19c-1.4,0-2.53,1.13-2.53,2.53v143.25c0,1.4,1.13,2.53,2.53,2.53h16.19c1.4,0,2.53-1.13,2.53-2.53V77.51
		C813.27,76.11,812.14,74.98,810.74,74.98z"/>
	<path d="M700.1,74.55h-72.2c-17.78,0-17.56,16.69-17.56,16.69v129.52c0,1.4,1.13,2.53,2.53,2.53h16.19c1.4,0,2.53-1.13,2.53-2.53
		V98.96c0-2.71,2.2-4.91,4.91-4.91h55.58c11.61,0,21.03,9.42,21.03,21.03v105.67c0,1.4,1.13,2.53,2.53,2.53h16.19
		c1.4,0,2.53-1.13,2.53-2.53V106.85C733.34,88.84,718.36,74.55,700.1,74.55z"/>
	<path d="M992.02,218.6l-47.45-68.24c-1.73-2.49-1.68-5.8,0.11-8.23l47.18-64.05c0.94-1.28,0.03-3.09-1.56-3.09h-16.75
		c-1.91,0-3.71,0.9-4.85,2.43l-41.46,55.46l-41.46-55.46c-1.14-1.53-2.94-2.43-4.86-2.43h-16.75c-1.59,0-2.51,1.81-1.56,3.09
		l47.18,64.05c1.8,2.44,1.84,5.75,0.11,8.23l-47.45,68.24c-0.9,1.29,0.03,3.05,1.59,3.05h16.66c2,0,3.88-0.99,5-2.64l41.53-60.77
		L968.75,219c1.13,1.65,3,2.64,5.01,2.64h16.66C991.99,221.65,992.91,219.88,992.02,218.6z"/>
	<path d="M172.83,127.45c-25.87,39.45-43.27,47.09-51.74,47.53c-8.48,0.45-33.01-9.81-36.58-37.47
		c-3.57-27.66,28.55-49.07,28.55-49.07S55.51,101.82,55.51,150s61.56,89.66,76.28,89.66s25.43-3.57,76.72-80.29
		c24.12-36.07,39.46-69.68,48.95-95.17c3.7-9.94,0.49-19.6-5.89-25.98c-16.94-16.94-83.21,19.44-83.21,19.44
		C207.17,56.33,198.7,88,172.83,127.45z"/>
	<path d="M259.47,103.21c6.15,14.38,9.56,30.19,9.56,46.79c0,65.84-53.56,119.4-119.4,119.4c-65.84,0-119.4-53.56-119.4-119.4
		c0-65.84,53.56-119.4,119.4-119.4c9.72,0,19.16,1.19,28.21,3.4c9.08-4.19,20.6-8.98,32.24-12.45C191.73,12.87,171.24,8,149.63,8
		c-78.3,0-142,63.7-142,142c0,78.3,63.7,142,142,142c78.3,0,142-63.7,142-142c0-26.98-7.57-52.22-20.68-73.73
		C267.43,85.33,263.6,94.31,259.47,103.21z"/>
</g>
</svg>
