<?xml version="1.0" encoding="utf-8"?>
<!-- Generator: Adobe Illustrator 24.3.0, SVG Export Plug-In . SVG Version: 6.00 Build 0)  -->
<svg version="1.1" id="Layer_1" xmlns="http://www.w3.org/2000/svg" xmlns:xlink="http://www.w3.org/1999/xlink" x="0px" y="0px"
	 viewBox="0 0 1000 300" style="enable-background:new 0 0 1000 300;" xml:space="preserve">
<style type="text/css">
	.st0{fill:#343433;}
	.st1{fill:url(#SVGID_1_);}
	.st2{fill:url(#SVGID_2_);}
	.st3{fill:#FFFFFF;}
</style>
<g>
	<path class="st0" d="M416.87,203.42c-0.38,1.01-1.83,1.01-2.21,0L366.32,74.98h-23.07c0,0,54.06,133.33,57.36,141.14
		c3.3,7.8,15.16,7.15,15.16,7.15s11.87,0.65,15.16-7.15c3.3-7.8,57.36-141.14,57.36-141.14h-23.07L416.87,203.42z"/>
	<path class="st0" d="M548.63,74.98h-16.19c-1.4,0-2.53,1.13-2.53,2.53v143.25c0,1.4,1.13,2.53,2.53,2.53h16.19
		c1.4,0,2.53-1.13,2.53-2.53V77.51C551.16,76.11,550.03,74.98,548.63,74.98z"/>
	<path class="st0" d="M810.74,74.98h-16.19c-1.4,0-2.53,1.13-2.53,2.53v143.25c0,1.4,1.13,2.53,2.53,2.53h16.19
		c1.4,0,2.53-1.13,2.53-2.53V77.51C813.27,76.11,812.14,74.98,810.74,74.98z"/>
	<path class="st0" d="M700.1,74.55h-72.2c-17.78,0-17.56,16.69-17.56,16.69v129.52c0,1.4,1.13,2.53,2.53,2.53h16.19
		c1.4,0,2.53-1.13,2.53-2.53V98.96c0-2.71,2.2-4.91,4.91-4.91h55.58c11.61,0,21.03,9.42,21.03,21.03v105.67
		c0,1.4,1.13,2.53,2.53,2.53h16.19c1.4,0,2.53-1.13,2.53-2.53V106.85C733.34,88.84,718.36,74.55,700.1,74.55z"/>
	<path class="st0" d="M992.02,218.6l-47.45-68.24c-1.73-2.49-1.68-5.8,0.11-8.23l47.18-64.05c0.94-1.28,0.03-3.09-1.56-3.09h-16.75
		c-1.91,0-3.71,0.9-4.85,2.43l-41.46,55.46l-41.46-55.46c-1.14-1.53-2.94-2.43-4.86-2.43h-16.75c-1.59,0-2.51,1.81-1.56,3.09
		l47.18,64.05c1.8,2.44,1.84,5.75,0.11,8.23l-47.45,68.24c-0.9,1.29,0.03,3.05,1.59,3.05h16.66c2,0,3.88-0.99,5-2.64l41.53-60.77
		L968.75,219c1.13,1.65,3,2.64,5.01,2.64h16.66C991.99,221.65,992.91,219.88,992.02,218.6z"/>
	<linearGradient id="SVGID_1_" gradientUnits="userSpaceOnUse" x1="55.51" y1="136.6943" x2="259.0272" y2="136.6943">
		<stop  offset="0" style="stop-color:#2DB8E5"/>
		<stop  offset="0.1042" style="stop-color:#44A1D7"/>
		<stop  offset="0.4192" style="stop-color:#8660B0"/>
		<stop  offset="0.6842" style="stop-color:#B63193"/>
		<stop  offset="0.8857" style="stop-color:#D41482"/>
		<stop  offset="1" style="stop-color:#DF097B"/>
	</linearGradient>
	<path class="st1" d="M172.83,127.45c-25.87,39.45-43.27,47.09-51.74,47.53c-8.48,0.45-33.01-9.81-36.58-37.47
		c-3.57-27.66,28.55-49.07,28.55-49.07S55.51,101.82,55.51,150s61.56,89.66,76.28,89.66s25.43-3.57,76.72-80.29
		c24.12-36.07,39.46-69.68,48.95-95.17c3.7-9.94,0.49-19.6-5.89-25.98c-16.94-16.94-83.21,19.44-83.21,19.44
		C207.17,56.33,198.7,88,172.83,127.45z"/>
	<linearGradient id="SVGID_2_" gradientUnits="userSpaceOnUse" x1="9.7742" y1="125.3432" x2="289.4867" y2="174.664">
		<stop  offset="0" style="stop-color:#2DB8E5"/>
		<stop  offset="0.1042" style="stop-color:#44A1D7"/>
		<stop  offset="0.4192" style="stop-color:#8660B0"/>
		<stop  offset="0.6842" style="stop-color:#B63193"/>
		<stop  offset="0.8857" style="stop-color:#D41482"/>
		<stop  offset="1" style="stop-color:#DF097B"/>
	</linearGradient>
	<path class="st2" d="M259.47,103.21c6.15,14.38,9.56,30.19,9.56,46.79c0,65.84-53.56,119.4-119.4,119.4
		c-65.84,0-119.4-53.56-119.4-119.4c0-65.84,53.56-119.4,119.4-119.4c9.72,0,19.16,1.19,28.21,3.4c9.08-4.19,20.6-8.98,32.24-12.45
		C191.73,12.87,171.24,8,149.63,8c-78.3,0-142,63.7-142,142c0,78.3,63.7,142,142,142c78.3,0,142-63.7,142-142
		c0-26.98-7.57-52.22-20.68-73.73C267.43,85.33,263.6,94.31,259.47,103.21z"/>
</g>
<path class="st3" d="M172.3,190c6.37-8.31,12.06-16.98,17.72-25.69c5.61-8.74,11.08-17.57,16.46-26.45
	c5.38-8.88,10.69-17.81,15.88-26.8l3.83-6.78c1.24-2.28,2.53-4.54,3.73-6.84c1.19-2.3,2.47-4.58,3.56-6.93
	c0.55-1.17,1.18-2.33,1.68-3.52l1.53-3.61c-0.25,1.28-0.54,2.56-0.81,3.86c-0.3,1.29-0.74,2.52-1.1,3.79
	c-0.37,1.27-0.78,2.52-1.25,3.74l-1.36,3.7c-0.96,2.45-2.02,4.84-3.03,7.27c-1.06,2.4-2.21,4.75-3.31,7.14
	c-4.54,9.45-9.64,18.62-15.06,27.58c-5.44,8.95-11.21,17.7-17.54,26.08c-3.14,4.2-6.41,8.3-9.86,12.27c-1.69,2-3.53,3.89-5.33,5.8
	C176.23,186.51,174.23,188.24,172.3,190z"/>
<path class="st3" d="M84.36,147.48c-1.44-1.58-2.77-3.32-3.79-5.25c-0.56-0.95-0.94-1.97-1.4-2.98c-0.36-1.04-0.73-2.09-0.96-3.17
	c-1.08-4.32-0.82-8.94,0.28-13.22c1.14-4.29,3.15-8.28,5.68-11.82c2.53-3.54,5.53-6.73,9.05-9.21c-2.64,3.37-5.01,6.85-7.07,10.47
	c-2.05,3.61-3.69,7.41-4.75,11.33c-0.57,1.95-0.87,3.96-1.03,5.97c-0.11,1.01-0.09,2.02-0.1,3.03c0.08,1.01,0.09,2.02,0.25,3.03
	c0.26,2.02,0.71,4.03,1.4,5.99C82.52,143.64,83.47,145.52,84.36,147.48z"/>
</svg>
